<svg xmlns="http://www.w3.org/2000/svg" xml:space="preserve" style="enable-background:new 0 0 256 256" viewBox="0 0 256 256"><style>.st1{fill:#fff}.st2{fill:#db1e35}</style><g id="Moldura"><linearGradient id="XMLID_00000022561706606958711340000002647700762732551817_" x1="221.467" x2="34.533" y1="-21.579" y2="277.579" gradientUnits="userSpaceOnUse"><stop offset="0" style="stop-color:#1066b1"/><stop offset="1" style="stop-color:#7c3b97"/></linearGradient><path id="XMLID_2_" d="M0 0h256v256H0z" style="fill:url(#XMLID_00000022561706606958711340000002647700762732551817_)"/><path d="M230.8 15.5H25.2c-5.3 0-9.7 4.3-9.7 9.7v205.6c0 5.3 4.3 9.7 9.7 9.7h205.6c5.3 0 9.7-4.3 9.7-9.7V25.2c0-5.4-4.3-9.7-9.7-9.7z" class="st1"/></g><g id="Layer_8"><path d="M218.4 71.2h-180v102h78.2l11.8 11.9 11.8-11.9h78.2z" class="st1"/><path d="M217.6 72v100.4h-77.7l-.2.2-11.2 11.2-11.2-11.2-.2-.2H39.2V72h178.4m.8-.8h-180v102h78.2l11.8 11.8 11.8-11.8h78.2v-102z" class="st2"/><path d="M218.4 132.1h-180v41.1h78.2l11.8 11.9 11.8-11.9h78.2z" class="st2"/><path d="M125.9 152.4c.1 3.1-.1 6.3 0 9.5v.1h-1.5s-.1 0-.1-.1v-25.5s0-.1.1-.1h1.5s.1 0 .1.1c-.1 5 .1 10.1 0 15 0 .1 0 .1.1.1l10.8-8.3s.1 0 .1-.1h1.8c.2 0 .3.1.1.3l-11 8.5v.1c3.7 3.1 7.5 6.2 11.2 9.4.2.1.3.3.4.4.1.2.1.2-.1.2h-1.7c-.1 0-.3-.1-.4-.2l-11.4-9.4c0-.1 0-.1 0 0z" class="st1"/><circle cx="97.1" cy="137.6" r="1.3" class="st1"/><path d="M75.1 138.8c-.1 0-.1 0-.1.1v22.9c0 .1 0 .1-.1.1h-1.5s-.1 0-.1-.1v-24.4s0-.1.1-.1h8.8c1.5 0 2.4 0 2.7.1 4.9.5 7.6 4.2 7.3 9-.3 4.4-3.5 7.5-7.8 7.8-1.1.1-3.1.1-6.1 0-.1 0-.1 0-.1-.1v-1.3s0-.1.1-.1c2.8.1 4.9 0 6.1-.1 3-.2 5.5-2.4 6-5.3.4-1.8.1-3.9-.8-5.5-1.3-2.3-3.6-3.1-6.2-3.1-3.4.1-5.7.2-8.3.1zM109.6 162c-8.7-2.4-9.4-15-1.4-18.5 3.8-1.7 8.3-1.2 11.5 1.5.1.1.1.1 0 .2l-.7 1.1h-.1c-4.5-4-12.5-2.5-14.3 3.6-1.4 4.7 1.1 9.8 6 10.9 3.1.7 5.9 0 8.3-2h.1l.7 1.1v.2c-2.7 2.3-6.6 2.9-10.1 1.9zm57.7-16.5c2.5-2.3 5.4-3.2 8.6-2.6 4.2.7 7.2 4.1 7.5 8.3.1.8.1 2.3-.1 3.3-1 6.2-7.2 9.3-12.8 7.2l-.1-.1v-1.3c4.8 1.8 10.1-.5 11.2-5.8.8-3.8-.6-7.8-4.2-9.5-3.5-1.6-7.3-.7-10.1 1.9-.1.1-.2.3-.2.4v21.3s0 .1-.1.1h-1.5s-.1 0-.1-.1V143s0-.1.1-.1h1.5s.1 0 .1.1l.2 2.5c-.1.1-.1.1 0 0zM96.4 143.1h1.5v18.8h-1.5v-18.8c-.1 0 0 0 0 0zM158 158.2c0-.1 0-.2-.1 0-1.8 3.3-5.5 4.6-9.1 4-4.1-.7-6.2-4-6.2-7.9v-11.1s0-.1.1-.1h1.5s.1 0 .1.1v10.5c0 5 3.3 8 8.3 6.9 2.6-.6 4.3-2 5.3-4.4.1-.3.2-.6.2-1 .1-1.3 0-3 0-4v-8.1s0-.1.1-.1h1.6v18.8s0 .1-.1.1h-1.5s-.1 0-.1-.1l-.1-3.6z" class="st1"/><path d="M144.8 113.3c-2.1.5-4.8.8-7.1.8-6 0-10-3.2-10-9.1 0-5.6 3.7-9.2 9.2-9.2 1.2 0 2.5.1 3.3.5v-8.1h4.7v25.1zm-4.7-12.7c-.7-.3-1.7-.5-2.9-.5-2.9 0-4.8 1.8-4.8 4.9 0 3.3 2.1 5.2 5.4 5.2.6 0 1.5 0 2.3-.2v-9.4zm43.4 12.7c-2.1.5-4.8.8-7.2.8-6 0-10-3.2-10-9.1 0-5.6 3.7-9.2 9.2-9.2 1.2 0 2.5.1 3.3.5v-8.1h4.7v25.1zm-4.7-12.7c-.7-.3-1.7-.5-2.9-.5-2.9 0-4.8 1.8-4.8 4.9 0 3.3 2.1 5.2 5.4 5.2.6 0 1.5 0 2.3-.2v-9.4zm-26.6-.1c.8-.3 1.9-.4 2.8-.4 2.9 0 4.9 1.7 4.9 4.7 0 3.6-2.2 5.2-5.2 5.2v4.1h.2c6.1 0 9.7-3.4 9.7-9.5 0-5.5-3.9-8.8-9.6-8.8-2.9 0-5.8.7-7.6 1.5v23.5h4.8v-20.3z" style="fill:#010101"/><linearGradient id="SVGID_1_" x1="2156.006" x2="2247.464" y1="-855.144" y2="-778.402" gradientTransform="matrix(.229 0 0 -.229 -420.168 -77.07)" gradientUnits="userSpaceOnUse"><stop offset="0" style="stop-color:#aa1d38"/><stop offset=".272" style="stop-color:#bb1f37"/><stop offset=".723" style="stop-color:#d41f35"/><stop offset="1" style="stop-color:#db1e35"/></linearGradient><path d="M102.1 99.4c-.2.1-.5.1-.7 0l-1.1-.7c-.1 0-.2-.1-.2-.2-.1-.1-.1-.2-.1-.3v-1.3c0-.2.1-.5.3-.6l13.5-7.8-19-10.5c-.2-.1-.5-.2-.8-.2-.3 0-.5 0-.8.2L74.4 88.3l21.2 12.3c.2.1.3.4.3.6v18c0 .2-.2.5-.3.6l-1.1.6c-.1 0-.2.1-.3.1-.1 0-.3 0-.4-.1l-1.1-.6c-.2-.1-.3-.4-.3-.6v-16c0-.1-.1-.3-.2-.3L73.4 92v21.2c0 .5.3 1.1.7 1.3l19.2 11.3c.2.1.5.2.7.2s.5 0 .7-.2l19.2-11.3c.4-.2.7-.8.7-1.3V92l-12.5 7.4z" style="fill:url(#SVGID_1_)"/></g></svg>